<svg width="40" height="40" viewBox="0 0 40 40" fill="none" xmlns="http://www.w3.org/2000/svg">
<rect width="40" height="40" rx="16" fill="#E8E2FF"/>
<path d="M17.5886 10.3572C16.0536 10.3572 14.8106 11.4715 14.4998 12.9186C12.6259 13.2544 11.16 14.8176 11.16 16.7857C11.16 16.9835 11.182 17.1593 11.2102 17.3382C10.6923 18.1009 10.3564 18.9987 10.3564 20C10.3564 21.4439 11.0753 22.6587 12.0891 23.5407C12.0169 23.8264 11.9636 24.112 11.9636 24.4196C11.9636 26.4066 13.5927 28.0357 15.5796 28.0357C15.6016 28.0357 15.611 28.0357 15.6299 28.0357C16.0976 28.9428 16.9074 29.6428 17.9903 29.6428C18.7751 29.6428 19.4876 29.3132 19.9993 28.789C20.5109 29.3132 21.2234 29.6428 22.0082 29.6428C23.0911 29.6428 23.901 28.9428 24.3687 28.0357C24.3875 28.0357 24.3969 28.0357 24.4189 28.0357C26.3054 28.0357 27.8529 26.5667 28.0098 24.721H28.0349C28.0349 24.6707 28.013 24.6205 28.0098 24.5703C28.013 24.5201 28.0349 24.4698 28.0349 24.4196C28.0349 24.1214 27.9282 23.8672 27.8592 23.5909C28.9013 22.7058 29.6421 21.469 29.6421 20C29.6421 18.9987 29.3062 18.1009 28.7883 17.3382C28.8165 17.1593 28.8385 16.9835 28.8385 16.7857C28.8385 14.8176 27.3726 13.2544 25.4987 12.9186C25.1879 11.4715 23.9449 10.3572 22.41 10.3572C21.4463 10.3572 20.5894 10.806 19.9993 11.4872C19.4091 10.806 18.5522 10.3572 17.5886 10.3572ZM17.5886 11.9643C18.4863 11.9643 19.1957 12.6737 19.1957 13.5715V15.1786C19.1957 16.5189 18.1253 17.5893 16.785 17.5893V19.1964C17.6953 19.1964 18.5208 18.8825 19.1957 18.3677V26.8303C19.1957 27.5052 18.6652 28.0357 17.9903 28.0357C17.3908 28.0357 16.9105 27.6213 16.8101 27.0563L16.6594 26.2779L15.881 26.4034C15.7397 26.4254 15.6518 26.4285 15.5796 26.4285C14.4622 26.4285 13.5707 25.5371 13.5707 24.4196C13.5707 24.1716 13.6115 23.9394 13.6963 23.7165C13.7026 23.6977 13.7151 23.6851 13.7214 23.6663C13.9694 23.0479 14.5093 22.5959 15.1779 22.4609L14.8514 20.8789C14.0133 21.0484 13.2851 21.4941 12.7671 22.1345C12.2618 21.5695 11.9636 20.8224 11.9636 20C11.9636 19.2466 12.221 18.5749 12.6667 18.0162L12.9178 17.7148L12.8425 17.3131C12.7985 17.1247 12.7671 16.9584 12.7671 16.7857C12.7671 15.4454 13.8375 14.375 15.1779 14.375H15.9814V13.5715C15.9814 12.6737 16.6908 11.9643 17.5886 11.9643ZM22.41 11.9643C23.3077 11.9643 24.0171 12.6737 24.0171 13.5715V14.375H24.8207C26.161 14.375 27.2314 15.4454 27.2314 16.7857C27.2314 16.9584 27.2 17.1247 27.156 17.3131L27.0807 17.7148L27.3318 18.0162C27.7776 18.5749 28.0349 19.2466 28.0349 20C28.0349 20.9636 27.6237 21.8237 26.9551 22.4107C26.4058 21.9242 25.7059 21.6071 24.9211 21.6071C24.1615 21.6071 23.4772 21.8771 22.9373 22.3354L23.9669 23.5658C24.2274 23.3461 24.5476 23.2143 24.9211 23.2143C25.6964 23.2143 26.3148 23.795 26.4027 24.5452C26.3368 25.603 25.4924 26.4285 24.4189 26.4285C24.3467 26.4285 24.2588 26.4254 24.1175 26.4034L23.3391 26.2779L23.1884 27.0563C23.088 27.6213 22.6077 28.0357 22.0082 28.0357C21.3333 28.0357 20.8028 27.5052 20.8028 26.8303V18.3677C21.4777 18.8825 22.3032 19.1964 23.2135 19.1964V17.5893C21.8732 17.5893 20.8028 16.5189 20.8028 15.1786V13.5715C20.8028 12.6737 21.5122 11.9643 22.41 11.9643Z" fill="#4126A8"/>
</svg>
