<svg width="40" height="40" viewBox="0 0 40 40" fill="none" xmlns="http://www.w3.org/2000/svg">
<rect width="40" height="40" rx="16" fill="#E8E2FF"/>
<path d="M20 30C18.6167 30 17.3167 29.7373 16.1 29.212C14.8833 28.6867 13.825 27.9743 12.925 27.075C12.025 26.1757 11.3127 25.1173 10.788 23.9C10.2633 22.6827 10.0007 21.3827 10 20C9.99933 18.6173 10.262 17.3173 10.788 16.1C11.314 14.8827 12.0263 13.8243 12.925 12.925C13.8237 12.0257 14.882 11.3133 16.1 10.788C17.318 10.2627 18.618 10 20 10C21.382 10 22.682 10.2627 23.9 10.788C25.118 11.3133 26.1763 12.0257 27.075 12.925C27.9737 13.8243 28.6863 14.8827 29.213 16.1C29.7397 17.3173 30.002 18.6173 30 20C29.998 21.3827 29.7353 22.6827 29.212 23.9C28.6887 25.1173 27.9763 26.1757 27.075 27.075C26.1737 27.9743 25.1153 28.687 23.9 29.213C22.6847 29.739 21.3847 30.0013 20 30ZM20 28C22.2333 28 24.125 27.225 25.675 25.675C27.225 24.125 28 22.2333 28 20C28 17.7667 27.225 15.875 25.675 14.325C24.125 12.775 22.2333 12 20 12C17.7667 12 15.875 12.775 14.325 14.325C12.775 15.875 12 17.7667 12 20C12 22.2333 12.775 24.125 14.325 25.675C15.875 27.225 17.7667 28 20 28ZM20 26C18.3333 26 16.9167 25.4167 15.75 24.25C14.5833 23.0833 14 21.6667 14 20C14 18.3333 14.5833 16.9167 15.75 15.75C16.9167 14.5833 18.3333 14 20 14C21.6667 14 23.0833 14.5833 24.25 15.75C25.4167 16.9167 26 18.3333 26 20C26 21.6667 25.4167 23.0833 24.25 24.25C23.0833 25.4167 21.6667 26 20 26ZM20 24C21.1 24 22.0417 23.6083 22.825 22.825C23.6083 22.0417 24 21.1 24 20C24 18.9 23.6083 17.9583 22.825 17.175C22.0417 16.3917 21.1 16 20 16C18.9 16 17.9583 16.3917 17.175 17.175C16.3917 17.9583 16 18.9 16 20C16 21.1 16.3917 22.0417 17.175 22.825C17.9583 23.6083 18.9 24 20 24ZM20 22C19.45 22 18.9793 21.8043 18.588 21.413C18.1967 21.0217 18.0007 20.5507 18 20C17.9993 19.4493 18.1953 18.9787 18.588 18.588C18.9807 18.1973 19.4513 18.0013 20 18C20.5487 17.9987 21.0197 18.1947 21.413 18.588C21.8063 18.9813 22.002 19.452 22 20C21.998 20.548 21.8023 21.019 21.413 21.413C21.0237 21.807 20.5527 22.0027 20 22Z" fill="#4126A8"/>
</svg>
