<svg width="40" height="40" viewBox="0 0 40 40" fill="none" xmlns="http://www.w3.org/2000/svg">
<rect width="40" height="40" rx="16" fill="#E8E2FF"/>
<path d="M26.1875 17.75C26.1881 16.7073 25.9252 15.6813 25.4232 14.7674C24.9212 13.8534 24.1963 13.0812 23.316 12.5224C22.4356 11.9636 21.4283 11.6363 20.3876 11.571C19.3469 11.5057 18.3066 11.7044 17.3633 12.1488C16.42 12.5931 15.6043 13.2686 14.9919 14.1126C14.3795 14.9566 13.9904 15.9416 13.8606 16.9763C13.7308 18.0109 13.8646 19.0615 14.2496 20.0306C14.6345 20.9997 15.2581 21.8558 16.0625 22.5193V27.875C16.0624 27.9709 16.0869 28.0653 16.1336 28.1491C16.1803 28.2329 16.2476 28.3034 16.3292 28.3538C16.4108 28.4043 16.5039 28.433 16.5998 28.4373C16.6956 28.4417 16.7909 28.4214 16.8767 28.3785L20 26.8203L23.124 28.382C23.2023 28.4194 23.2882 28.4384 23.375 28.4375C23.5242 28.4375 23.6673 28.3783 23.7727 28.2728C23.8782 28.1673 23.9375 28.0242 23.9375 27.875V22.5193C24.6413 21.9397 25.208 21.2114 25.597 20.3868C25.986 19.5622 26.1877 18.6618 26.1875 17.75ZM14.9375 17.75C14.9375 16.7487 15.2344 15.77 15.7907 14.9374C16.347 14.1049 17.1376 13.456 18.0627 13.0729C18.9877 12.6897 20.0056 12.5894 20.9876 12.7848C21.9697 12.9801 22.8717 13.4623 23.5797 14.1703C24.2877 14.8783 24.7699 15.7803 24.9652 16.7624C25.1606 17.7444 25.0603 18.7623 24.6771 19.6873C24.294 20.6124 23.6451 21.4031 22.8126 21.9593C21.9801 22.5156 21.0013 22.8125 20 22.8125C18.6578 22.811 17.371 22.2772 16.4219 21.3281C15.4728 20.379 14.939 19.0922 14.9375 17.75ZM22.8125 26.9652L20.251 25.6848C20.1729 25.6457 20.0867 25.6253 19.9993 25.6253C19.9119 25.6253 19.8257 25.6457 19.7476 25.6848L17.1875 26.9652V23.2604C18.0582 23.7054 19.0221 23.9375 20 23.9375C20.9779 23.9375 21.9418 23.7054 22.8125 23.2604V26.9652ZM20 21.6875C20.7788 21.6875 21.54 21.4566 22.1876 21.0239C22.8351 20.5913 23.3398 19.9763 23.6378 19.2568C23.9358 18.5373 24.0138 17.7456 23.8618 16.9818C23.7099 16.218 23.3349 15.5164 22.7842 14.9658C22.2336 14.4151 21.532 14.0401 20.7682 13.8882C20.0044 13.7362 19.2127 13.8142 18.4932 14.1122C17.7737 14.4103 17.1587 14.9149 16.7261 15.5625C16.2934 16.21 16.0625 16.9712 16.0625 17.75C16.0636 18.794 16.4788 19.7948 17.217 20.533C17.9552 21.2712 18.9561 21.6864 20 21.6875ZM20 14.9375C20.5563 14.9375 21.1 15.1025 21.5625 15.4115C22.0251 15.7205 22.3855 16.1598 22.5984 16.6737C22.8113 17.1876 22.867 17.7531 22.7585 18.2987C22.6499 18.8443 22.3821 19.3454 21.9887 19.7388C21.5954 20.1321 21.0943 20.4 20.5487 20.5085C20.0031 20.617 19.4376 20.5613 18.9237 20.3484C18.4098 20.1356 17.9705 19.7751 17.6615 19.3126C17.3525 18.85 17.1875 18.3063 17.1875 17.75C17.1875 17.0041 17.4838 16.2887 18.0113 15.7613C18.5387 15.2338 19.2541 14.9375 20 14.9375Z" fill="#4126A8"/>
</svg>
