<svg width="40" height="40" viewBox="0 0 40 40" fill="none" xmlns="http://www.w3.org/2000/svg">
<rect width="40" height="40" rx="16" fill="white" fill-opacity="0.2"/>
<path d="M22.999 27.128C23.8521 27.3754 24.7359 27.5006 25.624 27.5C27.0526 27.5034 28.4627 27.1776 29.745 26.548C29.7477 26.4907 29.749 26.433 29.749 26.375C29.7491 25.4929 29.4664 24.634 28.9424 23.9244C28.4185 23.2147 27.6808 22.6918 26.8377 22.4322C25.9947 22.1727 25.0906 22.1902 24.2583 22.4823C23.4259 22.7744 22.7091 23.3256 22.213 24.055M22.999 27.128V27.125C22.999 26.012 22.714 24.965 22.213 24.055M22.999 27.128V27.234C21.0749 28.3939 18.8698 29.0047 16.623 29C14.292 29 12.111 28.355 10.249 27.234L10.248 27.125C10.2473 25.7095 10.7177 24.3339 11.585 23.2153C12.4524 22.0966 13.6674 21.2984 15.0385 20.9466C16.4097 20.5948 17.8589 20.7093 19.1577 21.2721C20.4566 21.8349 21.5321 22.814 22.213 24.055M19.999 14.375C19.999 15.2701 19.6435 16.1285 19.0105 16.7615C18.3776 17.3944 17.5192 17.75 16.624 17.75C15.7289 17.75 14.8705 17.3944 14.2376 16.7615C13.6046 16.1285 13.249 15.2701 13.249 14.375C13.249 13.4799 13.6046 12.6214 14.2376 11.9885C14.8705 11.3556 15.7289 11 16.624 11C17.5192 11 18.3776 11.3556 19.0105 11.9885C19.6435 12.6214 19.999 13.4799 19.999 14.375ZM28.249 16.625C28.249 17.3212 27.9725 17.9889 27.4802 18.4812C26.9879 18.9734 26.3202 19.25 25.624 19.25C24.9279 19.25 24.2602 18.9734 23.7679 18.4812C23.2756 17.9889 22.999 17.3212 22.999 16.625C22.999 15.9288 23.2756 15.2611 23.7679 14.7688C24.2602 14.2766 24.9279 14 25.624 14C26.3202 14 26.9879 14.2766 27.4802 14.7688C27.9725 15.2611 28.249 15.9288 28.249 16.625Z" stroke="white" stroke-width="1.5" stroke-linecap="round" stroke-linejoin="round"/>
</svg>
