<svg width="41" height="40" viewBox="0 0 41 40" fill="none" xmlns="http://www.w3.org/2000/svg">
<rect x="0.333984" width="40" height="40" rx="16" fill="#E8E2FF"/>
<path fill-rule="evenodd" clip-rule="evenodd" d="M13.3385 19.5809L14.8175 20.0989L14.3945 23.4839C14.3375 23.9359 14.5215 24.4039 14.9145 24.6799C16.0715 25.4949 17.9575 26.4999 20.3345 26.4999C22.3107 26.506 24.234 25.8615 25.8075 24.6659C26.1725 24.3859 26.3295 23.9389 26.2775 23.5139L25.8505 20.0989L29.4205 18.8489C30.2235 18.5689 30.2235 17.4319 29.4205 17.1509L21.8205 14.4909C20.8582 14.1541 19.8099 14.1541 18.8475 14.4909L11.2475 17.1509C10.4435 17.4309 10.4435 18.5679 11.2475 18.8499L12.2975 19.2169C12.1595 19.3969 12.0625 19.5819 11.9945 19.7519C11.9481 19.8671 11.9106 19.9858 11.8825 20.1069C11.7288 20.1845 11.5977 20.3004 11.502 20.4435C11.4062 20.5866 11.349 20.752 11.3359 20.9237C11.3229 21.0954 11.3544 21.2676 11.4273 21.4235C11.5003 21.5795 11.6123 21.7139 11.7525 21.8139L11.7475 21.8309L10.8725 25.7699C10.8531 25.8576 10.8535 25.9486 10.8739 26.0361C10.8943 26.1236 10.9341 26.2054 10.9904 26.2755C11.0466 26.3456 11.1179 26.4021 11.1989 26.4409C11.28 26.4798 11.3687 26.4999 11.4585 26.4999H13.2085C13.2984 26.4999 13.3871 26.4798 13.4681 26.4409C13.5492 26.4021 13.6204 26.3456 13.6767 26.2755C13.7329 26.2054 13.7727 26.1236 13.7931 26.0361C13.8135 25.9486 13.814 25.8576 13.7945 25.7699L12.9195 21.8299L12.9155 21.8129C13.046 21.7196 13.1522 21.5962 13.225 21.4533C13.2978 21.3103 13.3351 21.1519 13.3338 20.9915C13.3326 20.8311 13.2927 20.6733 13.2176 20.5315C13.1426 20.3898 13.0345 20.2681 12.9025 20.1769C12.9872 19.9403 13.1386 19.7332 13.3385 19.5809ZM21.4895 15.4339C20.7411 15.172 19.9259 15.172 19.1775 15.4339L12.1175 17.9059C12.0982 17.9129 12.0815 17.9257 12.0698 17.9425C12.058 17.9593 12.0516 17.9794 12.0516 17.9999C12.0516 18.0204 12.058 18.0405 12.0698 18.0573C12.0815 18.0741 12.0982 18.0869 12.1175 18.0939L13.2485 18.4909C13.5885 18.3519 14.1385 18.2069 14.7355 18.0679C15.5254 17.8877 16.3185 17.7224 17.1145 17.5719C18.158 17.3717 19.2038 17.1834 20.2515 17.0069C20.3804 16.9894 20.5109 17.0228 20.6155 17.1C20.7201 17.1772 20.7906 17.2921 20.8119 17.4203C20.8332 17.5486 20.8038 17.6801 20.7298 17.787C20.6558 17.8938 20.5431 17.9677 20.4155 17.9929C20.0995 18.0462 19.7835 18.1006 19.4675 18.1559C18.8905 18.2579 18.1125 18.3979 17.3035 18.5529C16.4945 18.7079 15.6565 18.8799 14.9635 19.0419L14.8795 19.0619L19.1775 20.5659C19.9259 20.8278 20.7411 20.8278 21.4895 20.5659L28.5505 18.0939C28.5698 18.0869 28.5865 18.0741 28.5983 18.0573C28.6101 18.0405 28.6164 18.0204 28.6164 17.9999C28.6164 17.9794 28.6101 17.9593 28.5983 17.9425C28.5865 17.9257 28.5698 17.9129 28.5505 17.9059L21.4895 15.4339ZM21.8195 21.5089L24.8845 20.4369L25.2845 23.6379C25.2922 23.6814 25.2882 23.7262 25.2729 23.7676C25.2576 23.8091 25.2316 23.8457 25.1975 23.8739C23.7986 24.935 22.0894 25.5064 20.3335 25.4999C18.2425 25.4999 16.5565 24.6139 15.4895 23.8619C15.4513 23.8326 15.4215 23.7936 15.4034 23.7489C15.3853 23.7043 15.3795 23.6556 15.3865 23.6079L15.7825 20.4369L18.8475 21.5089C19.8099 21.8457 20.8582 21.8457 21.8205 21.5089M11.9585 25.4999L12.3335 23.8049L12.7105 25.4999H11.9585Z" fill="#4126A8"/>
</svg>
