<svg width="41" height="40" viewBox="0 0 41 40" fill="none" xmlns="http://www.w3.org/2000/svg">
<rect x="0.666016" width="40" height="40" rx="16" fill="#E8E2FF"/>
<path d="M20.666 16.1823C19.8409 15.1322 18.5691 14.0821 15.4169 14.005C15.2099 13.9999 15.041 14.1681 15.041 14.3752C15.041 15.9116 15.041 21.728 15.041 23.4482C15.041 23.6553 15.2099 23.818 15.4169 23.8247C18.5691 23.9278 19.8409 25.3253 20.666 26.3755M20.666 16.1823C21.4911 15.1322 22.7629 14.0821 25.9151 14.005C26.1222 13.9999 26.291 14.1643 26.291 14.3714C26.291 16.0888 26.291 21.7303 26.291 23.4477C26.291 23.6548 26.1222 23.818 25.9152 23.8247C22.763 23.9278 21.4911 25.3253 20.666 26.3755M20.666 16.1823V26.3755" stroke="#4126A8" stroke-linejoin="round"/>
<path d="M26.0925 15.5H27.791C27.9981 15.5 28.166 15.6679 28.166 15.875V25.6542C28.166 25.9577 27.8085 26.1593 27.5311 26.0361C26.9348 25.7711 25.9396 25.4474 24.6366 25.4474C22.4307 25.4474 20.666 26.75 20.666 26.75C20.666 26.75 18.9013 25.4474 16.6954 25.4474C15.3924 25.4474 14.3972 25.7711 13.8009 26.0361C13.5235 26.1593 13.166 25.9577 13.166 25.6542V15.875C13.166 15.6679 13.3339 15.5 13.541 15.5H15.2395" stroke="#4126A8" stroke-linejoin="round"/>
</svg>
