<svg width="15" height="16" viewBox="0 0 15 16" fill="none" xmlns="http://www.w3.org/2000/svg">
<path d="M4.0625 11.4375V9.5625M7.1875 11.4375V5.8125M10.3125 11.4375V8.9375M13.4375 3.9375C13.4375 4.43478 13.24 4.91169 12.8883 5.26333C12.5367 5.61496 12.0598 5.8125 11.5625 5.8125C11.0652 5.8125 10.5883 5.61496 10.2367 5.26333C9.88504 4.91169 9.6875 4.43478 9.6875 3.9375C9.6875 3.44022 9.88504 2.96331 10.2367 2.61167C10.5883 2.26004 11.0652 2.0625 11.5625 2.0625C12.0598 2.0625 12.5367 2.26004 12.8883 2.61167C13.24 2.96331 13.4375 3.44022 13.4375 3.9375Z" stroke="#4126A8" stroke-linecap="round" stroke-linejoin="round"/>
<path d="M13.435 7.375C13.435 7.375 13.4375 7.5875 13.4375 8C13.4375 10.7987 13.4375 12.1987 12.5681 13.0681C11.6987 13.9375 10.2994 13.9375 7.5 13.9375C4.70125 13.9375 3.30125 13.9375 2.43187 13.0681C1.5625 12.1987 1.5625 10.7994 1.5625 8C1.5625 5.20125 1.5625 3.80187 2.43187 2.93187C3.30125 2.0625 4.70062 2.0625 7.5 2.0625H8.125" stroke="#4126A8" stroke-linecap="round" stroke-linejoin="round"/>
</svg>
