<svg width="15" height="16" viewBox="0 0 15 16" fill="none" xmlns="http://www.w3.org/2000/svg">
<path d="M1.56156 6.12407V12.0616M0.952812 5.67251C0.520938 5.46564 0.520938 4.90751 0.952812 4.70064C1.51906 4.42939 2.365 4.04439 3.56156 3.54595C5.22406 2.85345 6.35969 2.44282 6.96938 2.2347C7.31271 2.11708 7.68542 2.11708 8.02875 2.2347C8.63813 2.44282 9.77437 2.85345 11.4366 3.54595C12.6334 4.04439 13.4791 4.42939 14.0456 4.70064C14.4769 4.90751 14.4769 5.46564 14.0456 5.67251C13.4791 5.94376 12.6331 6.32876 11.4366 6.8272C9.77406 7.5197 8.63844 7.93032 8.02875 8.13845C7.68542 8.25607 7.31271 8.25607 6.96938 8.13845C6.36 7.93032 5.22375 7.5197 3.56156 6.8272C2.36469 6.32845 1.51906 5.94376 0.952812 5.67251Z" stroke="#4126A8" stroke-width="0.9375" stroke-linecap="round" stroke-linejoin="round"/>
<path d="M3.46938 6.78906C3.44741 7.20964 3.43678 7.63073 3.4375 8.05188C3.4375 9.01875 3.48719 9.62594 3.53594 9.98937C3.57875 10.3069 3.76063 10.5769 4.04438 10.7253C4.59313 11.0128 5.70781 11.4375 7.5 11.4375C9.29219 11.4375 10.4069 11.0131 10.9556 10.7256C11.2394 10.5772 11.4213 10.3072 11.4641 9.99C11.5128 9.62625 11.5625 9.01906 11.5625 8.0525C11.5632 7.63125 11.5526 7.21005 11.5306 6.78937M2.5 13C2.5 13.2486 2.40123 13.4871 2.22541 13.6629C2.0496 13.8387 1.81114 13.9375 1.5625 13.9375C1.31386 13.9375 1.0754 13.8387 0.899587 13.6629C0.723772 13.4871 0.625 13.2486 0.625 13C0.625 12.7514 0.723772 12.5129 0.899587 12.3371C1.0754 12.1613 1.31386 12.0625 1.5625 12.0625C1.81114 12.0625 2.0496 12.1613 2.22541 12.3371C2.40123 12.5129 2.5 12.7514 2.5 13Z" stroke="#4126A8" stroke-width="0.9375" stroke-linecap="round" stroke-linejoin="round"/>
</svg>
