<svg width="95" height="96" viewBox="0 0 95 96" fill="none" xmlns="http://www.w3.org/2000/svg">
<path d="M59.3731 76.215C62.7497 77.1943 66.248 77.69 69.7637 77.6875C75.4184 77.7009 81.0002 76.4115 86.076 73.9192C86.0866 73.6922 86.0919 73.464 86.0919 73.2344C86.0922 69.7427 84.9732 66.3428 82.8991 63.5339C80.825 60.725 77.9051 58.6549 74.5679 57.6276C71.2308 56.6002 67.6522 56.6697 64.3575 57.8258C61.0627 58.9819 58.2254 61.1637 56.2619 64.051M59.3731 76.215V76.2031C59.3731 71.7975 58.245 67.6531 56.2619 64.051M59.3731 76.215V76.6346C51.7567 81.226 43.0281 83.6436 34.1348 83.625C24.9079 83.625 16.2748 81.0719 8.90435 76.6346L8.90039 76.2031C8.89736 70.6 10.7593 65.1551 14.1926 60.7271C17.626 56.299 22.4354 53.1396 27.8627 51.747C33.2901 50.3543 39.0266 50.8076 44.1678 53.0354C49.3091 55.2631 53.5666 59.1387 56.2619 64.051M47.4981 25.7344C47.4981 29.2775 46.0906 32.6755 43.5852 35.1809C41.0799 37.6862 37.6819 39.0938 34.1387 39.0938C30.5956 39.0938 27.1976 37.6862 24.6922 35.1809C22.1869 32.6755 20.7794 29.2775 20.7794 25.7344C20.7794 22.1912 22.1869 18.7932 24.6922 16.2879C27.1976 13.7825 30.5956 12.375 34.1387 12.375C37.6819 12.375 41.0799 13.7825 43.5852 16.2879C46.0906 18.7932 47.4981 22.1912 47.4981 25.7344ZM80.1544 34.6406C80.1544 37.3964 79.0596 40.0393 77.111 41.9879C75.1624 43.9365 72.5195 45.0313 69.7637 45.0313C67.008 45.0313 64.3651 43.9365 62.4164 41.9879C60.4678 40.0393 59.3731 37.3964 59.3731 34.6406C59.3731 31.8849 60.4678 29.242 62.4164 27.2933C64.3651 25.3447 67.008 24.25 69.7637 24.25C72.5195 24.25 75.1624 25.3447 77.111 27.2933C79.0596 29.242 80.1544 31.8849 80.1544 34.6406Z" stroke="#4126A8" stroke-width="5.27778" stroke-linecap="round" stroke-linejoin="round"/>
</svg>
