<svg width="18" height="28" viewBox="0 0 18 28" fill="none" xmlns="http://www.w3.org/2000/svg">
<path d="M11.2508 19.346C11.8905 19.5315 12.5534 19.6255 13.2195 19.625C14.2909 19.6275 15.3485 19.3832 16.3103 18.911C16.3123 18.868 16.3133 18.8247 16.3133 18.7812C16.3133 18.1197 16.1013 17.4755 15.7083 16.9433C15.3153 16.4111 14.7621 16.0188 14.1298 15.8242C13.4975 15.6295 12.8194 15.6427 12.1952 15.8617C11.5709 16.0808 11.0333 16.4942 10.6613 17.0413M11.2508 19.346V19.3438C11.2508 18.509 11.037 17.7238 10.6613 17.0413M11.2508 19.346V19.4255C9.80763 20.2955 8.1538 20.7535 6.46875 20.75C4.7205 20.75 3.08475 20.2662 1.68825 19.4255L1.6875 19.3438C1.68693 18.2821 2.03971 17.2504 2.69024 16.4114C3.34077 15.5724 4.25203 14.9738 5.28037 14.7099C6.3087 14.4461 7.39562 14.532 8.36975 14.9541C9.34388 15.3762 10.1506 16.1105 10.6613 17.0413M9.00075 9.78125C9.00075 10.4526 8.73407 11.0964 8.25936 11.5711C7.78466 12.0458 7.14083 12.3125 6.4695 12.3125C5.79817 12.3125 5.15434 12.0458 4.67964 11.5711C4.20494 11.0964 3.93825 10.4526 3.93825 9.78125C3.93825 9.10992 4.20494 8.46609 4.67964 7.99139C5.15434 7.51668 5.79817 7.25 6.4695 7.25C7.14083 7.25 7.78466 7.51668 8.25936 7.99139C8.73407 8.46609 9.00075 9.10992 9.00075 9.78125ZM15.1883 11.4688C15.1883 11.9909 14.9808 12.4917 14.6116 12.8609C14.2424 13.2301 13.7416 13.4375 13.2195 13.4375C12.6974 13.4375 12.1966 13.2301 11.8274 12.8609C11.4582 12.4917 11.2508 11.9909 11.2508 11.4688C11.2508 10.9466 11.4582 10.4458 11.8274 10.0766C12.1966 9.70742 12.6974 9.5 13.2195 9.5C13.7416 9.5 14.2424 9.70742 14.6116 10.0766C14.9808 10.4458 15.1883 10.9466 15.1883 11.4688Z" stroke="#4126A8" stroke-linecap="round" stroke-linejoin="round"/>
</svg>
