<svg width="16" height="17" viewBox="0 0 16 17" fill="none" xmlns="http://www.w3.org/2000/svg">
<path d="M2.66728 7.16673L2.19594 7.63806L1.72461 7.16673L2.19594 6.69539L2.66728 7.16673ZM14.0006 12.5001C14.0006 12.6769 13.9304 12.8464 13.8053 12.9715C13.6803 13.0965 13.5108 13.1667 13.3339 13.1667C13.1571 13.1667 12.9876 13.0965 12.8625 12.9715C12.7375 12.8464 12.6673 12.6769 12.6673 12.5001H14.0006ZM5.52928 10.9714L2.19594 7.63806L3.13861 6.69539L6.47194 10.0287L5.52928 10.9714ZM2.19594 6.69539L5.52928 3.36206L6.47194 4.30473L3.13861 7.63806L2.19594 6.69539ZM2.66728 6.50006H9.33394V7.83339H2.66728V6.50006ZM14.0006 11.1667V12.5001H12.6673V11.1667H14.0006ZM9.33394 6.50006C10.5716 6.50006 11.7586 6.99173 12.6338 7.8669C13.5089 8.74207 14.0006 9.92905 14.0006 11.1667H12.6673C12.6673 10.2827 12.3161 9.43483 11.691 8.8097C11.0658 8.18458 10.218 7.83339 9.33394 7.83339V6.50006Z" fill="white"/>
</svg>
