<svg width="13" height="14" viewBox="0 0 13 14" fill="none" xmlns="http://www.w3.org/2000/svg">
<path d="M2.16797 2.66659C2.16797 2.37927 2.28211 2.10372 2.48527 1.90055C2.68843 1.69739 2.96398 1.58325 3.2513 1.58325H7.58464C7.72828 1.58328 7.86604 1.64037 7.96759 1.74196L10.6759 4.45029C10.7775 4.55185 10.8346 4.6896 10.8346 4.83325V11.3333C10.8346 11.6206 10.7205 11.8961 10.5173 12.0993C10.3142 12.3024 10.0386 12.4166 9.7513 12.4166H3.2513C2.96398 12.4166 2.68843 12.3024 2.48527 12.0993C2.28211 11.8961 2.16797 11.6206 2.16797 11.3333V2.66659ZM9.52705 4.83325L7.58464 2.89084V4.83325H9.52705ZM6.5013 2.66659H3.2513V11.3333H9.7513V5.91659H7.04297C6.89931 5.91659 6.76154 5.85952 6.65995 5.75794C6.55837 5.65635 6.5013 5.51858 6.5013 5.37492V2.66659ZM6.5013 6.72909C6.64496 6.72909 6.78274 6.78615 6.88432 6.88774C6.9859 6.98932 7.04297 7.12709 7.04297 7.27075V8.6715L7.20168 8.51279C7.30384 8.41412 7.44066 8.35953 7.58269 8.36076C7.72471 8.362 7.86057 8.41896 7.961 8.51939C8.06143 8.61982 8.11839 8.75568 8.11963 8.8977C8.12086 9.03972 8.06626 9.17655 7.96759 9.27871L6.88426 10.362C6.78268 10.4636 6.64493 10.5206 6.5013 10.5206C6.35767 10.5206 6.21992 10.4636 6.11834 10.362L5.03501 9.27871C4.98328 9.22874 4.94201 9.16897 4.91362 9.10289C4.88523 9.0368 4.87029 8.96572 4.86967 8.8938C4.86904 8.82188 4.88275 8.75055 4.90998 8.68399C4.93722 8.61742 4.97744 8.55694 5.0283 8.50608C5.07916 8.45522 5.13963 8.415 5.2062 8.38777C5.27277 8.36053 5.3441 8.34682 5.41602 8.34745C5.48794 8.34807 5.55902 8.36302 5.6251 8.39141C5.69119 8.41979 5.75096 8.46106 5.80093 8.51279L5.95964 8.6715V7.27075C5.95964 7.12709 6.0167 6.98932 6.11829 6.88774C6.21987 6.78615 6.35764 6.72909 6.5013 6.72909Z" fill="#4126A8"/>
</svg>
