<svg width="14" height="15" viewBox="0 0 14 15" fill="none" xmlns="http://www.w3.org/2000/svg">
<path d="M8.81395 12.1666V11.1296C8.81395 10.5795 8.59543 10.052 8.20646 9.66299C7.8175 9.27403 7.28995 9.05551 6.73987 9.05551H3.62876C3.07868 9.05551 2.55113 9.27403 2.16217 9.66299C1.77321 10.052 1.55469 10.5795 1.55469 11.1296V12.1666M8.81395 2.89966C9.25871 3.01496 9.6526 3.27468 9.93378 3.63806C10.215 4.00144 10.3675 4.4479 10.3675 4.90736C10.3675 5.36683 10.215 5.81329 9.93378 6.17666C9.6526 6.54004 9.25871 6.79976 8.81395 6.91507M11.9251 12.1666V11.1296C11.9247 10.67 11.7718 10.2236 11.4902 9.86041C11.2087 9.49721 10.8145 9.2378 10.3695 9.12292" stroke="#9CA3AF" stroke-linecap="round" stroke-linejoin="round"/>
<path d="M5.18345 6.9814C6.32893 6.9814 7.25752 6.05281 7.25752 4.90733C7.25752 3.76185 6.32893 2.83325 5.18345 2.83325C4.03797 2.83325 3.10938 3.76185 3.10938 4.90733C3.10938 6.05281 4.03797 6.9814 5.18345 6.9814Z" stroke="#9CA3AF" stroke-linecap="round" stroke-linejoin="round"/>
</svg>
