<svg width="13" height="13" viewBox="0 0 13 13" fill="none" xmlns="http://www.w3.org/2000/svg">
<path d="M5.99968 9.49993C6.52497 9.49993 7.04512 9.39647 7.53042 9.19545C8.01572 8.99443 8.45668 8.69979 8.82811 8.32836C9.19955 7.95692 9.49418 7.51596 9.6952 7.03066C9.89622 6.54536 9.99969 6.02522 9.99969 5.49993C9.99969 4.97464 9.89622 4.4545 9.6952 3.96919C9.49418 3.48389 9.19955 3.04294 8.82811 2.6715C8.45668 2.30007 8.01572 2.00543 7.53042 1.80441C7.04512 1.60339 6.52497 1.49993 5.99968 1.49993C4.93882 1.49993 3.9214 1.92136 3.17126 2.6715C2.42111 3.42165 1.99968 4.43906 1.99968 5.49993C1.99968 6.56079 2.42111 7.57821 3.17126 8.32836C3.9214 9.0785 4.93882 9.49993 5.99968 9.49993ZM10.213 8.7706L12.5997 11.1573C12.6633 11.2188 12.714 11.2924 12.7489 11.3738C12.7838 11.4551 12.8021 11.5426 12.8028 11.6311C12.8035 11.7197 12.7866 11.8074 12.753 11.8893C12.7195 11.9712 12.6699 12.0456 12.6073 12.1082C12.5446 12.1707 12.4702 12.2202 12.3882 12.2537C12.3063 12.2871 12.2185 12.3039 12.1299 12.3031C12.0414 12.3023 11.954 12.2838 11.8726 12.2488C11.7913 12.2138 11.7178 12.163 11.6564 12.0993L9.26968 9.7126C8.19799 10.5445 6.84955 10.9367 5.49885 10.8094C4.14816 10.6821 2.89675 10.0448 1.99939 9.0273C1.10202 8.0098 0.626141 6.68856 0.668635 5.33254C0.711129 3.97653 1.2688 2.68768 2.22812 1.72836C3.18743 0.769041 4.47629 0.211373 5.8323 0.168879C7.18831 0.126385 8.50956 0.60226 9.52706 1.49963C10.5446 2.397 11.1818 3.6484 11.3091 4.9991C11.4365 6.34979 11.0443 7.69824 10.2124 8.76993L10.213 8.7706Z" fill="#4126A8"/>
</svg>
