<svg width="18" height="18" viewBox="0 0 18 18" fill="none" xmlns="http://www.w3.org/2000/svg">
<path d="M9 5.18523C8.17492 4.13511 6.90305 3.08499 3.75089 3.00793C3.54385 3.00287 3.375 3.17104 3.375 3.37815C3.375 4.91451 3.375 10.731 3.375 12.4512C3.375 12.6582 3.54386 12.8209 3.75086 12.8277C6.90304 12.9307 8.17492 14.3283 9 15.3784M9 5.18523C9.82508 4.13511 11.0969 3.08499 14.2491 3.00793C14.4562 3.00287 14.625 3.16726 14.625 3.37437C14.625 5.09176 14.625 10.7332 14.625 12.4506C14.625 12.6577 14.4562 12.8209 14.2492 12.8277C11.097 12.9307 9.82508 14.3283 9 15.3784M9 5.18523V15.3784" stroke="black" stroke-linejoin="round"/>
<path d="M14.4265 4.5H16.125C16.3321 4.5 16.5 4.66789 16.5 4.875V14.6542C16.5 14.9577 16.1425 15.1593 15.8651 15.0361C15.2688 14.7711 14.2736 14.4474 12.9706 14.4474C10.7647 14.4474 9 15.75 9 15.75C9 15.75 7.2353 14.4474 5.02941 14.4474C3.72634 14.4474 2.73117 14.7711 2.13485 15.0361C1.85751 15.1593 1.5 14.9577 1.5 14.6542V4.875C1.5 4.66789 1.66789 4.5 1.875 4.5H3.57353" stroke="black" stroke-linejoin="round"/>
</svg>
