<svg width="18" height="18" viewBox="0 0 18 18" fill="none" xmlns="http://www.w3.org/2000/svg">
<path d="M11.2508 14.346C11.8905 14.5315 12.5534 14.6255 13.2195 14.625C14.2909 14.6275 15.3485 14.3832 16.3103 13.911C16.3123 13.868 16.3133 13.8247 16.3133 13.7812C16.3133 13.1197 16.1013 12.4755 15.7083 11.9433C15.3153 11.4111 14.7621 11.0188 14.1298 10.8242C13.4975 10.6295 12.8194 10.6427 12.1952 10.8617C11.5709 11.0808 11.0333 11.4942 10.6613 12.0413M11.2508 14.346V14.3438C11.2508 13.509 11.037 12.7238 10.6613 12.0413M11.2508 14.346V14.4255C9.80763 15.2955 8.1538 15.7535 6.46875 15.75C4.7205 15.75 3.08475 15.2662 1.68825 14.4255L1.6875 14.3438C1.68693 13.2821 2.03971 12.2504 2.69024 11.4114C3.34077 10.5724 4.25203 9.97382 5.28037 9.70995C6.3087 9.44607 7.39562 9.53196 8.36975 9.95407C9.34388 10.3762 10.1506 11.1105 10.6613 12.0413M9.00075 4.78125C9.00075 5.45258 8.73407 6.09641 8.25936 6.57111C7.78466 7.04582 7.14083 7.3125 6.4695 7.3125C5.79817 7.3125 5.15434 7.04582 4.67964 6.57111C4.20494 6.09641 3.93825 5.45258 3.93825 4.78125C3.93825 4.10992 4.20494 3.46609 4.67964 2.99139C5.15434 2.51668 5.79817 2.25 6.4695 2.25C7.14083 2.25 7.78466 2.51668 8.25936 2.99139C8.73407 3.46609 9.00075 4.10992 9.00075 4.78125ZM15.1883 6.46875C15.1883 6.99089 14.9808 7.49165 14.6116 7.86087C14.2424 8.23008 13.7416 8.4375 13.2195 8.4375C12.6974 8.4375 12.1966 8.23008 11.8274 7.86087C11.4582 7.49165 11.2508 6.99089 11.2508 6.46875C11.2508 5.94661 11.4582 5.44585 11.8274 5.07663C12.1966 4.70742 12.6974 4.5 13.2195 4.5C13.7416 4.5 14.2424 4.70742 14.6116 5.07663C14.9808 5.44585 15.1883 5.94661 15.1883 6.46875Z" stroke="black" stroke-linecap="round" stroke-linejoin="round"/>
</svg>
