<svg width="18" height="18" viewBox="0 0 18 18" fill="none" xmlns="http://www.w3.org/2000/svg">
<path d="M15.75 9.00039C15.7521 10.3405 15.3536 11.6506 14.6055 12.7624C13.9886 13.6826 13.1544 14.4367 12.1767 14.9579C11.199 15.479 10.1079 15.7512 9 15.7504C7.89208 15.7512 6.80103 15.479 5.82333 14.9579C4.84564 14.4367 4.01144 13.6826 3.3945 12.7624C2.80705 11.8867 2.43293 10.8856 2.30213 9.83922C2.17133 8.79288 2.2875 7.73045 2.64131 6.7371C2.99512 5.74375 3.57675 4.84711 4.33955 4.11905C5.10235 3.391 6.02512 2.85179 7.03388 2.54464C8.04264 2.2375 9.10933 2.17096 10.1484 2.35037C11.1875 2.52977 12.1702 2.95014 13.0175 3.57775C13.8649 4.20537 14.5534 5.02278 15.028 5.96447C15.5025 6.90615 15.7498 7.94591 15.75 9.00039Z" stroke="black"/>
<path d="M9.93805 6.75C9.93805 7.2675 9.51805 7.6875 9.00055 7.6875V8.8125C9.54756 8.8125 10.0722 8.5952 10.459 8.20841C10.8457 7.82161 11.063 7.29701 11.063 6.75H9.93805ZM9.00055 7.6875C8.48305 7.6875 8.06305 7.2675 8.06305 6.75H6.93805C6.93805 7.29701 7.15535 7.82161 7.54214 8.20841C7.92893 8.5952 8.45354 8.8125 9.00055 8.8125V7.6875ZM8.06305 6.75C8.06305 6.2325 8.48305 5.8125 9.00055 5.8125V4.6875C8.45354 4.6875 7.92893 4.9048 7.54214 5.29159C7.15535 5.67839 6.93805 6.20299 6.93805 6.75H8.06305ZM9.00055 5.8125C9.51805 5.8125 9.93805 6.2325 9.93805 6.75H11.063C11.063 6.20299 10.8457 5.67839 10.459 5.29159C10.0722 4.9048 9.54756 4.6875 9.00055 4.6875V5.8125ZM3.87505 13.392L3.3358 13.2315L3.24805 13.5255L3.4483 13.758L3.87505 13.392ZM14.126 13.392L14.5535 13.7587L14.753 13.5262L14.6653 13.2315L14.126 13.392ZM6.75055 11.8125H11.2505V10.6875H6.75055V11.8125ZM6.75055 10.6875C5.98331 10.6873 5.23651 10.9348 4.62125 11.3932C4.00599 11.8515 3.55515 12.4963 3.3358 13.2315L4.4143 13.5525C4.56448 13.0496 4.87298 12.6086 5.2939 12.2951C5.71483 11.9816 6.2257 11.8124 6.75055 11.8125V10.6875ZM9.00055 15.1875C8.10761 15.1885 7.22508 14.9958 6.41386 14.6226C5.60264 14.2495 4.88204 13.7047 4.3018 13.026L3.4483 13.758C4.13414 14.5597 4.98568 15.204 5.94421 15.6448C6.90275 16.0857 7.94548 16.3135 9.00055 16.3125V15.1875ZM11.2505 11.8125C12.353 11.8125 13.2868 12.546 13.5868 13.5525L14.6653 13.2315C14.4459 12.4963 13.9951 11.8515 13.3798 11.3932C12.7646 10.9348 12.0178 10.6873 11.2505 10.6875V11.8125ZM13.6993 13.026C13.1191 13.7047 12.3985 14.2495 11.5872 14.6226C10.776 14.9958 9.89348 15.1885 9.00055 15.1875V16.3125C10.0556 16.3135 11.0983 16.0857 12.0569 15.6448C13.0154 15.204 13.8677 14.5605 14.5535 13.7587L13.6993 13.026Z" fill="black"/>
</svg>
