<svg width="25" height="25" viewBox="0 0 25 25" fill="none" xmlns="http://www.w3.org/2000/svg">
<path d="M12.5 16.075C12.3667 16.075 12.2417 16.0543 12.125 16.013C12.0083 15.9717 11.9 15.9007 11.8 15.8L8.2 12.2C8 12 7.904 11.7667 7.912 11.5C7.92 11.2333 8.016 11 8.2 10.8C8.4 10.6 8.63767 10.496 8.913 10.488C9.18833 10.48 9.42567 10.5757 9.625 10.775L11.5 12.65V5.5C11.5 5.21667 11.596 4.97934 11.788 4.788C11.98 4.59667 12.2173 4.50067 12.5 4.5C12.7827 4.49934 13.0203 4.59534 13.213 4.788C13.4057 4.98067 13.5013 5.218 13.5 5.5V12.65L15.375 10.775C15.575 10.575 15.8127 10.479 16.088 10.487C16.3633 10.495 16.6007 10.5993 16.8 10.8C16.9833 11 17.0793 11.2333 17.088 11.5C17.0967 11.7667 17.0007 12 16.8 12.2L13.2 15.8C13.1 15.9 12.9917 15.971 12.875 16.013C12.7583 16.055 12.6333 16.0757 12.5 16.075ZM6.5 20.5C5.95 20.5 5.47933 20.3043 5.088 19.913C4.69667 19.5217 4.50067 19.0507 4.5 18.5V16.5C4.5 16.2167 4.596 15.9793 4.788 15.788C4.98 15.5967 5.21733 15.5007 5.5 15.5C5.78267 15.4993 6.02033 15.5953 6.213 15.788C6.40567 15.9807 6.50133 16.218 6.5 16.5V18.5H18.5V16.5C18.5 16.2167 18.596 15.9793 18.788 15.788C18.98 15.5967 19.2173 15.5007 19.5 15.5C19.7827 15.4993 20.0203 15.5953 20.213 15.788C20.4057 15.9807 20.5013 16.218 20.5 16.5V18.5C20.5 19.05 20.3043 19.521 19.913 19.913C19.5217 20.305 19.0507 20.5007 18.5 20.5H6.5Z" fill="white"/>
</svg>
