<svg width="54" height="54" viewBox="0 0 54 54" fill="none" xmlns="http://www.w3.org/2000/svg">
<rect x="0.5" y="0.5" width="53" height="53" rx="26.5" fill="#F8ECCE"/>
<rect x="0.5" y="0.5" width="53" height="53" rx="26.5" stroke="#F59F0A"/>
<path d="M37.8438 22.8749C37.8449 20.9632 37.3629 19.0823 36.4425 17.4067C35.5221 15.7312 34.1932 14.3154 32.5793 13.2909C30.9653 12.2664 29.1186 11.6665 27.2106 11.5467C25.3027 11.4269 23.3955 11.7913 21.6661 12.6059C19.9366 13.4206 18.4411 14.659 17.3185 16.2063C16.1958 17.7536 15.4824 19.5595 15.2445 21.4564C15.0065 23.3532 15.2518 25.2793 15.9576 27.056C16.6633 28.8326 17.8066 30.4021 19.2813 31.6186V41.4374C19.2811 41.6133 19.326 41.7863 19.4116 41.9399C19.4971 42.0936 19.6206 42.2228 19.7702 42.3153C19.9198 42.4078 20.0905 42.4605 20.2662 42.4683C20.4419 42.4762 20.6167 42.4391 20.774 42.3604L26.5 39.5038L32.2273 42.3668C32.3709 42.4354 32.5283 42.4702 32.6875 42.4687C32.961 42.4687 33.2233 42.36 33.4167 42.1666C33.6101 41.9732 33.7188 41.7109 33.7188 41.4374V31.6186C35.009 30.5559 36.048 29.2208 36.7612 27.7091C37.4744 26.1973 37.8441 24.5464 37.8438 22.8749ZM17.2188 22.8749C17.2188 21.0392 17.7631 19.2448 18.7829 17.7185C19.8028 16.1922 21.2523 15.0026 22.9482 14.3001C24.6441 13.5977 26.5103 13.4139 28.3107 13.772C30.1111 14.1301 31.7648 15.0141 33.0628 16.3121C34.3608 17.6101 35.2448 19.2638 35.6029 21.0642C35.961 22.8646 35.7772 24.7308 35.0748 26.4267C34.3723 28.1226 33.1827 29.5721 31.6564 30.592C30.1301 31.6118 28.3357 32.1562 26.5 32.1562C24.0393 32.1534 21.6802 31.1747 19.9402 29.4347C18.2002 27.6947 17.2215 25.3356 17.2188 22.8749ZM31.6563 39.7694L26.9602 37.422C26.8169 37.3503 26.6589 37.313 26.4987 37.313C26.3385 37.313 26.1805 37.3503 26.0372 37.422L21.3438 39.7694V32.9773C22.9401 33.7932 24.7072 34.2186 26.5 34.2186C28.2928 34.2186 30.0599 33.7932 31.6563 32.9773V39.7694ZM26.5 30.0937C27.9277 30.0937 29.3234 29.6703 30.5105 28.8771C31.6976 28.0839 32.6229 26.9565 33.1693 25.6374C33.7156 24.3183 33.8586 22.8669 33.58 21.4666C33.3015 20.0663 32.614 18.78 31.6044 17.7705C30.5949 16.7609 29.3086 16.0734 27.9083 15.7949C26.508 15.5163 25.0566 15.6593 23.7375 16.2056C22.4185 16.752 21.291 17.6773 20.4978 18.8644C19.7046 20.0515 19.2813 21.4472 19.2813 22.8749C19.2833 24.7888 20.0445 26.6237 21.3978 27.9771C22.7512 29.3304 24.5861 30.0916 26.5 30.0937ZM26.5 17.7187C27.5198 17.7187 28.5167 18.0211 29.3647 18.5876C30.2126 19.1542 30.8735 19.9595 31.2638 20.9017C31.654 21.8439 31.7561 22.8806 31.5572 23.8808C31.3582 24.881 30.8671 25.7998 30.146 26.5209C29.4249 27.242 28.5062 27.7331 27.5059 27.9321C26.5057 28.131 25.469 28.0289 24.5268 27.6387C23.5846 27.2484 22.7793 26.5875 22.2127 25.7396C21.6462 24.8916 21.3438 23.8947 21.3438 22.8749C21.3438 21.5074 21.887 20.1959 22.854 19.2289C23.821 18.2619 25.1325 17.7187 26.5 17.7187Z" fill="#F59F0A"/>
</svg>
